<?xml version="1.0"?>
<svg xmlns="http://www.w3.org/2000/svg" xmlns:xlink="http://www.w3.org/1999/xlink" version="1.1" viewBox="0 0 192 192" width="48px" height="48px"><g fill="none" fill-rule="nonzero" stroke="none" stroke-width="1" stroke-linecap="butt" stroke-linejoin="miter" stroke-miterlimit="10" stroke-dasharray="" stroke-dashoffset="0" font-family="none" font-weight="none" font-size="none" text-anchor="none" style="mix-blend-mode: normal"><path d="M0,192v-192h192v192z" fill="none"/><g fill="#2ecc71"><path d="M96,24l-80,16v112l80,16zM112,40v16h16v16h-16v16h16v16h-16v16h16v16h-16v16h56c4.416,0 8,-3.584 8,-8v-96c0,-4.416 -3.584,-8 -8,-8zM144,56h16v16h-16zM33.40625,66.375h14.21875l7.39062,17.71875c0.6,1.448 1.05163,3.12725 1.51562,5.03125h0.20313c0.264,-1.144 0.80138,-2.89187 1.60938,-5.17187l8.23437,-17.57813h12.96875l-15.48438,29.35938l15.9375,29.89062h-13.82812l-8.90625,-19.3125c-0.336,-0.68 -0.7345,-2.04912 -1.0625,-3.95312h-0.125c-0.2,0.912 -0.60312,2.27738 -1.20312,4.10938l-8.98438,19.15625h-13.89062l16.48438,-29.65625zM144,88h16v16h-16zM144,120h16v16h-16z"/></g><path d="M48,192c-26.50967,0 -48,-21.49033 -48,-48v-96c0,-26.50967 21.49033,-48 48,-48h96c26.50967,0 48,21.49033 48,48v96c0,26.50967 -21.49033,48 -48,48z" fill="none"/><path d="M63.36,176.64c-26.50967,0 -48,-21.49033 -48,-48v-65.28c0,-26.50967 21.49033,-48 48,-48h65.28c26.50967,0 48,21.49033 48,48v65.28c0,26.50967 -21.49033,48 -48,48z" fill="none"/></g></svg>
